<svg xmlns="http://www.w3.org/2000/svg" viewBox="0 0 1000 909">
	<defs>
		<style>
		#main {
			fill: #FFF;
		}
		</style>
	</defs>
	<g id="main">
		<polygon points="316.33 146.33 0 146.33 158.17 370.33 316.33 146.33"/>
		<polygon points="1000 146.33 683.67 146.33 841.83 370.33 1000 146.33"/>
		<polygon points="659.41 692.37 343.08 692.37 500.39 909 659.41 692.37"/>
		<polygon points="494.33 112.67 453.33 168.33 535.67 168.33 494.33 112.67"/>
		<polygon points="494.5 72 424 168.33 370 168.33 494.5 0 618.43 168.33 565.67 168.33 494.5 72"/>
		<polygon points="338.5 212.5 364.5 176.5 624.5 176.5 651.35 212.5 338.5 212.5"/>
		<polygon points="331.67 220.33 385.33 220.33 336.33 286 283.67 286 331.67 220.33"/>
		<polygon points="603.5 220.25 656.75 220.25 699.83 278.17 646.58 278.17 603.5 220.25"/>
		<polygon points="267.33 307 477.95 307 447.55 351.33 235.33 351.33 267.33 307"/>
		<polygon points="203.28 395.1 418.21 395.1 388.67 438.67 171 438.67 203.28 395.1"/>
		<polygon points="531.28 246 378.5 482.5 138.65 482.5 96.14 540.5 148.22 540.5 154.04 533.57 396.78 533.57 456.5 443 456.5 574.5 498 574.5 498.33 533.52 465.33 533.52 497.78 491.8 498.33 377.33 529 329.73 531.28 246"/>
		<polygon points="79.85 562.5 132.5 562.5 116 585 872 585 715.5 371.19 646.5 371.19 646 574.5 603.5 574.5 603.5 371.19 518.5 371.19 538 337.35 603.5 337.35 603.5 249.21 645.5 307 646 336.85 743 336.85 964 637 25 637 79.85 562.5"/>
		<polygon points="580 386.5 580 453.47 554.5 485.5 554.5 496.63 587.5 496.63 587.5 533.57 512.5 533.57 512.5 472.75 580 386.5"/>
		<polygon points="671.5 386.5 739.5 471.57 739.5 533.57 662.5 533.57 662.5 496.5 695.78 496.57 695.5 486 671.63 453.25 671.5 386.5"/>
		<polygon points="753 488.65 753 533.5 789 533.5 753 488.65"/>
	</g>
</svg>
